<svg xmlns="http://www.w3.org/2000/svg" viewBox="0 0 1200 630" width="1200" height="630">
  <defs>
    <linearGradient id="bg" x1="0" y1="0" x2="1" y2="1">
      <stop offset="0%" stop-color="#0f1720"/>
      <stop offset="100%" stop-color="#1c2733"/>
    </linearGradient>
    <linearGradient id="accent" x1="0" y1="0" x2="0" y2="1">
      <stop offset="0%" stop-color="#ff9e57"/>
      <stop offset="100%" stop-color="#ff7a1a"/>
    </linearGradient>
  </defs>

  <rect width="1200" height="630" fill="url(#bg)"/>
  <circle cx="1040" cy="120" r="180" fill="#ff7a1a" opacity="0.08"/>
  <circle cx="980" cy="520" r="220" fill="#4c7a9c" opacity="0.12"/>

  <rect x="660" y="110" width="360" height="230" rx="28" fill="#16202b" stroke="#ff7a1a" stroke-width="6"/>
  <rect x="690" y="150" width="300" height="130" rx="20" fill="#223140"/>
  <path d="M732 255l48-56 50 42 64-82 54 68" fill="none" stroke="#eef4f8" stroke-width="16" stroke-linecap="round" stroke-linejoin="round"/>
  <circle cx="772" cy="186" r="18" fill="#ff7a1a"/>
  <rect x="720" y="302" width="96" height="16" rx="8" fill="#ff7a1a" opacity="0.85"/>
  <rect x="832" y="302" width="126" height="16" rx="8" fill="#eef4f8" opacity="0.34"/>

  <rect x="706" y="372" width="290" height="46" rx="16" fill="#16202b" stroke="rgba(255,255,255,0.06)" stroke-width="2"/>
  <rect x="706" y="434" width="290" height="46" rx="16" fill="#16202b" stroke="rgba(255,255,255,0.06)" stroke-width="2"/>
  <rect x="706" y="496" width="290" height="46" rx="16" fill="#16202b" stroke="rgba(255,255,255,0.06)" stroke-width="2"/>
  <rect x="726" y="388" width="68" height="14" rx="7" fill="#ff7a1a" opacity="0.85"/>
  <rect x="726" y="450" width="112" height="14" rx="7" fill="#eef4f8" opacity="0.4"/>
  <rect x="726" y="512" width="84" height="14" rx="7" fill="#ff7a1a" opacity="0.65"/>

  <text x="88" y="214" font-family="'Helvetica Neue', Arial, sans-serif" font-size="30" font-weight="700" fill="#ff7a1a" letter-spacing="2">BUILDOG</text>
  <text x="88" y="308" font-family="'Helvetica Neue', Arial, sans-serif" font-size="96" font-weight="900" fill="#eef4f8">施工写真を</text>
  <text x="88" y="404" font-family="'Helvetica Neue', Arial, sans-serif" font-size="96" font-weight="900" fill="#eef4f8">公開URLで共有</text>
  <text x="92" y="472" font-family="'Helvetica Neue', Arial, sans-serif" font-size="28" fill="rgba(238,244,248,0.72)">案件ごとに写真を整理し、顧客には閲覧専用でそのまま共有。</text>
  <rect x="92" y="510" width="96" height="6" rx="3" fill="url(#accent)"/>
</svg>
